<svg width="1236" height="1229" xmlns="http://www.w3.org/2000/svg" xmlns:xlink="http://www.w3.org/1999/xlink" xml:space="preserve" overflow="hidden"><defs><filter id="fx0" x="-10%" y="-10%" width="120%" height="120%" filterUnits="userSpaceOnUse" primitiveUnits="userSpaceOnUse"><feComponentTransfer color-interpolation-filters="sRGB"><feFuncR type="discrete" tableValues="0 0"/><feFuncG type="discrete" tableValues="0 0"/><feFuncB type="discrete" tableValues="0 0"/><feFuncA type="linear" slope="1" intercept="0"/></feComponentTransfer><feGaussianBlur stdDeviation="5.35157 5.35157"/></filter><clipPath id="clip1"><rect x="340" y="2277" width="1236" height="1229"/></clipPath></defs><g clip-path="url(#clip1)" transform="translate(-340 -2277)"><path d="M640.743 2351.27C638.435 2348.96 638.435 2345.22 640.743 2342.91L657.454 2326.2C659.761 2323.9 663.502 2323.9 665.809 2326.2L1478.94 3139.33C1481.25 3141.64 1481.25 3145.38 1478.94 3147.69L1462.23 3164.4C1459.92 3166.71 1456.18 3166.71 1453.87 3164.4Z" fill-rule="evenodd"/><g filter="url(#fx0)" transform="matrix(1.99838 0 0 1.99838 346 2276)"><g><path d="M367.202 566.718 49.3836 248.899C6.37302 205.889 6.37305 136.155 49.3837 93.1442L124.377 18.1523C125.97 16.5591 128.553 16.5591 130.146 18.1523L597.95 485.956C599.543 487.55 599.543 490.133 597.95 491.726L522.958 566.718C479.947 609.729 410.213 609.729 367.202 566.718Z" fill="#0AB9E6" fill-rule="evenodd"/></g></g><path d="M1082.22 3419.07 434.134 2770.99C346.429 2683.28 346.429 2541.08 434.134 2453.38L587.057 2300.46C590.306 2297.21 595.573 2297.21 598.822 2300.46L1552.75 3254.38C1556 3257.63 1556 3262.9 1552.75 3266.15L1399.83 3419.07C1312.12 3506.77 1169.92 3506.77 1082.22 3419.07Z" fill="#0AB9E6" fill-rule="evenodd"/><path d="M616.333 2758.36C579.331 2721.35 579.334 2661.36 616.34 2624.35 653.346 2587.35 713.342 2587.34 750.344 2624.35 787.347 2661.35 787.344 2721.34 750.338 2758.35 713.331 2795.36 653.336 2795.36 616.333 2758.36Z" stroke="#000000" stroke-width="4.58333" stroke-miterlimit="8" fill-rule="evenodd"/><path d="M874.906 3087.32C859.023 3071.43 859.024 3045.68 874.909 3029.79 890.795 3013.91 916.549 3013.91 932.432 3029.79 948.316 3045.67 948.315 3071.43 932.429 3087.31 916.544 3103.2 890.79 3103.2 874.906 3087.32Z" stroke="#000000" stroke-width="4.58333" stroke-miterlimit="8" fill-rule="evenodd"/><path d="M1009.56 2952.66C993.674 2936.78 993.676 2911.03 1009.56 2895.14 1025.45 2879.26 1051.2 2879.26 1067.08 2895.14 1082.97 2911.02 1082.97 2936.78 1067.08 2952.66 1051.2 2968.55 1025.44 2968.55 1009.56 2952.66Z" stroke="#000000" stroke-width="4.58333" stroke-miterlimit="8" fill-rule="evenodd"/><path d="M1011.85 3086.54C995.962 3070.66 995.964 3044.91 1011.85 3029.02 1027.73 3013.14 1053.49 3013.14 1069.37 3029.02 1085.26 3044.9 1085.25 3070.66 1069.37 3086.54 1053.48 3102.43 1027.73 3102.43 1011.85 3086.54Z" fill-rule="evenodd"/><path d="M879.503 2954.2C863.62 2938.32 863.621 2912.56 879.506 2896.68 895.392 2880.79 921.146 2880.79 937.029 2896.68 952.913 2912.56 952.912 2938.31 937.026 2954.2 921.141 2970.08 895.387 2970.09 879.503 2954.2Z" fill-rule="evenodd"/><path d="M1159.79 3119.73C1154.3 3114.24 1154.3 3105.35 1159.79 3099.87L1199.51 3060.15C1204.99 3054.67 1213.88 3054.67 1219.37 3060.15L1259.08 3099.86C1264.56 3105.35 1264.56 3114.24 1259.08 3119.72L1219.36 3159.44C1213.88 3164.92 1204.99 3164.92 1199.5 3159.44Z" fill-rule="evenodd"/><path d="M588.498 2461.22C587.156 2459.88 587.156 2457.7 588.498 2456.36L643.215 2401.64C644.557 2400.3 646.733 2400.3 648.076 2401.64L657.797 2411.36C659.139 2412.7 659.139 2414.88 657.797 2416.22L603.08 2470.94C601.738 2472.28 599.562 2472.28 598.219 2470.94Z" fill-rule="evenodd"/><path d="M378.531 2689.64C350.87 2598.44 376.383 2499.43 444.672 2432.95" stroke="#000000" stroke-width="20.625" stroke-miterlimit="8" fill="none" fill-rule="evenodd"/><path d="M824.196 2509.12C823.122 2508.05 823.122 2506.31 824.196 2505.24L831.974 2497.46C833.048 2496.38 834.789 2496.38 835.863 2497.46L883.752 2545.35C884.826 2546.42 884.826 2548.16 883.752 2549.24L875.974 2557.01C874.9 2558.09 873.159 2558.09 872.085 2557.01Z" fill="#0AB9E6" fill-rule="evenodd"/><path d="M1257.39 2941.9C1256.31 2940.83 1256.31 2939.09 1257.39 2938.01L1265.16 2930.23C1266.24 2929.16 1267.98 2929.16 1269.05 2930.23L1316.94 2978.12C1318.02 2979.2 1318.02 2980.94 1316.94 2982.01L1309.16 2989.79C1308.09 2990.86 1306.35 2990.86 1305.28 2989.79Z" fill="#0AB9E6" fill-rule="evenodd"/><path d="M431.184 2685.27C407.563 2603.99 431.158 2515.68 492.448 2455.97" stroke="#000000" stroke-width="64.1667" stroke-miterlimit="8" stroke-opacity="0" fill="none" fill-rule="evenodd"/></g></svg>