<svg viewBox="0 0 507 1404" xmlns="http://www.w3.org/2000/svg" xmlns:xlink="http://www.w3.org/1999/xlink" xml:space="preserve" overflow="hidden">
    <defs>
        <filter id="fx0" x="-10%" y="-10%" width="120%" height="120%" filterUnits="userSpaceOnUse" primitiveUnits="userSpaceOnUse">
        <feComponentTransfer color-interpolation-filters="sRGB">
            <feFuncR type="discrete" tableValues="0 0"/>
            <feFuncG type="discrete" tableValues="0 0"/><feFuncB type="discrete" tableValues="0 0"/>
            <feFuncA type="linear" slope="1" intercept="0"/>
        </feComponentTransfer>
        <feGaussianBlur stdDeviation="5.35773 5.34722"/>
    </filter>
    <clipPath id="clip1">
        <rect x="641" y="760" width="507" height="1404"/>
    </clipPath>
</defs>
<g clip-path="url(#clip1)" transform="translate(-641 -760)">
    <path d="M1112 852.843C1112 849.616 1114.62 847 1117.84 847L1141.21 847C1144.44 847 1147.06 849.616 1147.06 852.843L1147.06 2003.16C1147.06 2006.38 1144.44 2009 1141.21 2009L1117.84 2009C1114.62 2009 1112 2006.38 1112 2003.16Z" fill-rule="evenodd"/>
    <g filter="url(#fx0)" transform="matrix(1.99608 0 0 2 639 759)">
        <g>
            <path d="M17.2788 576.165 17.2788 126.835C17.2788 66.0806 66.6265 16.8298 127.5 16.8298L233.639 16.8298C235.893 16.8298 237.721 18.654 237.721 20.9041L237.721 682.096C237.721 684.346 235.893 686.17 233.639 686.17L127.5 686.17C66.6265 686.17 17.2788 636.919 17.2788 576.165Z" fill="#0AB9E6" fill-rule="evenodd"/>
        </g>
    </g>
    <path class="body" d="M669 1920.5 669 1003.5C669 879.512 769.512 779 893.5 779L1109.68 779C1114.28 779 1118 782.723 1118 787.315L1118 2136.69C1118 2141.28 1114.28 2145 1109.68 2145L893.5 2145C769.512 2145 669 2044.49 669 1920.5Z" fill="#0AB9E6" fill-rule="evenodd"/>
    <path id="stick" class="btn" d="M806.5 1124C806.5 1071.81 849.033 1029.5 901.5 1029.5 953.967 1029.5 996.5 1071.81 996.5 1124 996.5 1176.19 953.967 1218.5 901.5 1218.5 849.033 1218.5 806.5 1176.19 806.5 1124Z" stroke="#000000" stroke-width="4.58333" stroke-miterlimit="8" fill-rule="evenodd"/>
    <path id="left" class="btn" d="M757.5 1539.5C757.5 1516.86 775.633 1498.5 798 1498.5 820.367 1498.5 838.5 1516.86 838.5 1539.5 838.5 1562.14 820.367 1580.5 798 1580.5 775.633 1580.5 757.5 1562.14 757.5 1539.5Z" stroke="#000000" stroke-width="4.58333" stroke-miterlimit="8" fill-rule="evenodd"/>
    <path id="right" class="btn" d="M947.5 1539.5C947.5 1516.86 965.632 1498.5 988 1498.5 1010.37 1498.5 1028.5 1516.86 1028.5 1539.5 1028.5 1562.14 1010.37 1580.5 988 1580.5 965.632 1580.5 947.5 1562.14 947.5 1539.5Z" stroke="#000000" stroke-width="4.58333" stroke-miterlimit="8" fill-rule="evenodd"/>
    <path id="down" class="btn" d="M854 1635.5C854 1613.13 872.132 1595 894.5 1595 916.867 1595 935 1613.13 935 1635.5 935 1657.87 916.867 1676 894.5 1676 872.132 1676 854 1657.87 854 1635.5Z" stroke="#000000" stroke-width="4.58333" stroke-miterlimit="8" fill-rule="evenodd"/>
    <path id="up" class="btn" d="M854 1448.5C854 1426.13 872.132 1408 894.5 1408 916.867 1408 935 1426.13 935 1448.5 935 1470.87 916.867 1489 894.5 1489 872.132 1489 854 1470.87 854 1448.5Z" stroke="#000000" stroke-width="4.58333" stroke-miterlimit="8" fill-rule="evenodd"/>
    <path id="capture" class="btn" d="M935 1763C935 1755.27 941.268 1749 949 1749L1005 1749C1012.73 1749 1019 1755.27 1019 1763L1019 1820C1019 1827.73 1012.73 1834 1005 1834L949 1834C941.268 1834 935 1827.73 935 1820Z" stroke="#000000" stroke-width="4.58333" stroke-miterlimit="8" fill-rule="evenodd"/>
    <path id="minus" class="btn" d="M997 893.5C997 891.567 998.567 890 1000.5 890L1077.5 890C1079.43 890 1081 891.567 1081 893.5L1081 907.5C1081 909.433 1079.43 911 1077.5 911L1000.5 911C998.567 911 997 909.433 997 907.5Z" stroke="#000000" stroke-width="4.58333" stroke-miterlimit="8" fill-rule="evenodd"/>
    <path id="l" class="btn-stroke" d="M687.603 907.307C732.535 823.233 820.609 771.242 915.928 772.523" stroke="#000000" stroke-width="20.625" stroke-miterlimit="8" fill="none" fill-rule="evenodd"/>
    <path id="sl" class="btn body" d="M1129 1093.83C1129 1092.27 1130.27 1091 1131.83 1091L1143.17 1091C1144.73 1091 1146 1092.27 1146 1093.83L1146 1162.17C1146 1163.73 1144.73 1165 1143.17 1165L1131.83 1165C1130.27 1165 1129 1163.73 1129 1162.17Z" fill="#0AB9E6" stroke-width="4.58333" stroke-miterlimit="8" fill-rule="evenodd"/>
    <path id="sr" class="btn body" d="M1130 1706.67C1130 1705.19 1131.19 1704 1132.67 1704L1143.33 1704C1144.81 1704 1146 1705.19 1146 1706.67L1146 1774.33C1146 1775.81 1144.81 1777 1143.33 1777L1132.67 1777C1131.19 1777 1130 1775.81 1130 1774.33Z" fill="#0AB9E6" stroke-width="4.58333" stroke-miterlimit="8" fill-rule="evenodd"/>
    <path id="zl" d="M726.909 940.728C767.748 866.616 846.936 820.904 932.551 822.02" stroke-width="64.1667" stroke-miterlimit="8" fill="none" fill-rule="evenodd"/>
</g>
</svg>
